<svg width="617" height="414" viewBox="0 0 617 414" fill="none" xmlns="http://www.w3.org/2000/svg">
<ellipse cx="308.306" cy="206.705" rx="308.306" ry="206.705" fill="black"/>
<path d="M434.127 85.8395C434.615 84.7697 435.682 84.083 436.858 84.083H506.842C509.024 84.083 510.477 86.3384 509.573 88.3247L445.544 229.152C445.367 229.542 445.275 229.965 445.275 230.394V326.599C445.275 328.256 443.932 329.599 442.275 329.599H418.371H399.745H375.84C374.183 329.599 372.84 328.256 372.84 326.599V230.394C372.84 229.965 372.748 229.542 372.571 229.152L308.542 88.3247C307.639 86.3384 309.091 84.083 311.273 84.083H381.258C382.433 84.083 383.501 84.7697 383.988 85.8395L406.327 134.887C407.394 137.229 410.721 137.229 411.788 134.887L434.127 85.8395Z" fill="white"/>
<path d="M215.245 87.083C215.245 85.4261 216.588 84.083 218.245 84.083H285.025C286.682 84.083 288.025 85.4262 288.025 87.083V218.292C288.025 282.878 248.703 335.095 200.068 335.095C151.433 335.095 112.111 282.878 112.111 218.292V201.596C112.111 199.939 113.454 198.596 115.111 198.596H181.546C183.203 198.596 184.546 199.939 184.546 201.596V218.292C184.546 229.744 191.445 238.905 200.068 238.905C208.346 238.905 215.245 229.744 215.245 218.292V87.083Z" fill="white"/>
</svg>
